<?xml version="1.0" encoding="UTF-8"?>
<svg width="37px" height="11px" viewBox="0 0 37 11" version="1.1" xmlns="http://www.w3.org/2000/svg" xmlns:xlink="http://www.w3.org/1999/xlink">
    <title>26906C86-8CC8-4036-AE3A-66EC2C525FD4</title>
    <g id="iPage" stroke="none" stroke-width="1" fill="none" fill-rule="evenodd">
        <g id="S-iPage-Homepage---v01" transform="translate(-219.000000, -6571.000000)" fill="#0B75E0" fill-rule="nonzero">
            <g id=".o-testimonials__fos-s" transform="translate(-244.000000, 5960.000000)">
                <g id=".m-testimonial__cards1x3" transform="translate(0.000000, 248.000000)">
                    <g id=".m-card__counter" transform="translate(299.000000, 361.000000)">
                        <path d="M194.777778,2 C194.984375,2 195.178819,2.07519531 195.324653,2.20410156 L195.324653,2.20410156 L200.769097,7.01660156 C200.914931,7.14550781 201,7.31738281 201,7.5 C201,7.68261719 200.914931,7.85449219 200.769097,7.98339844 L200.769097,7.98339844 L195.324653,12.7958984 C195.178819,12.9248047 194.984375,13 194.777778,13 C194.352431,13 194,12.6884766 194,12.3125 L194,12.3125 L194,9 L165.5,9 C164.671573,9 164,8.32842712 164,7.5 C164,6.67157288 164.671573,6 165.5,6 L194,6 L194,2.6875 C194,2.31152344 194.352431,2 194.777778,2 Z" id=".a-shape__arrow--forward"></path>
                    </g>
                </g>
            </g>
        </g>
    </g>
</svg>