<svg height="71" viewBox="0 0 70 71" width="70" xmlns="http://www.w3.org/2000/svg"><g fill="#014d7e" fill-rule="evenodd"><path d="m34.9825052.10497901c-19.3203148 0-34.98247372 15.66215889-34.98247372 34.98247379 0 19.3203148 15.66215892 34.9825787 34.98247372 34.9825787 19.3203149 0 34.9824738-15.6622639 34.9824738-34.9825787 0-19.3203149-15.6621589-34.98247379-34.9824738-34.98247379m0 2.09895053c4.4402249 0 8.7464318.86917541 12.7990855 2.58328335 1.9481409.82394303 3.8271214 1.84392804 5.5849925 3.0314093 1.7417092 1.17677661 3.3795202 2.52808091 4.8682009 4.01665671 1.4884708 1.4885757 2.8398801 3.1264917 4.0165517 4.8682009 1.1874813 1.757871 2.2074663 3.6368515 3.0315143 5.5848875 1.7141079 4.0527586 2.5831784 8.3589655 2.5831784 12.7990855 0 4.4402249-.8690705 8.7464318-2.5831784 12.7991904-.824048 1.948036-1.844033 3.8270165-3.0315143 5.5848875-1.1766716 1.7417092-2.5280809 3.3795203-4.0165517 4.868096-1.4886807 1.4886806-3.1264917 2.8400899-4.8682009 4.0167616-1.7578711 1.1874813-3.6368516 2.2074663-5.5849925 3.0313044-4.0526537 1.7142128-8.3588606 2.5833883-12.7990855 2.5833883-4.4402248 0-8.7464317-.8691755-12.7990854-2.5833883-1.9481409-.8238381-3.8271214-1.8438231-5.5849925-3.0313044-1.7417092-1.1766717-3.3795203-2.528081-4.8682009-4.0167616-1.4884708-1.4885757-2.83988007-3.1263868-4.01655174-4.868096-1.18748126-1.757871-2.20746626-3.6368515-3.03151424-5.5848875-1.71410795-4.0527586-2.58317841-8.3589655-2.58317841-12.7991904 0-4.44012.86907046-8.7463269 2.58317841-12.7990855.82404798-1.948036 1.84403298-3.8270165 3.03151424-5.5848875 1.17667167-1.7417092 2.52808094-3.3796252 4.01655174-4.8682009 1.4886806-1.4885758 3.1264917-2.8398801 4.8682009-4.01665671 1.7578711-1.18748126 3.6368516-2.20746627 5.5849925-3.0314093 4.0526537-1.71410794 8.3588606-2.58328335 12.7990854-2.58328335"/><path d="m60.5643883 21.1014003c.1252024.9283658.196042 1.9244228.196042 2.9975112 0 2.9570015-.554018 6.2824738-2.2175412 10.4411245l-8.9036432 25.7434183c8.6668815-5.0529086 14.4953523-14.4424588 14.4953523-25.1970615 0-5.0683358-1.2951574-9.8331634-3.5702099-13.9849925zm-25.0697601 16.5350075-8.7479011 25.4153523c2.6124588.7686357 5.3744678 1.1877961 8.2357572 1.1877961 3.3948425 0 6.6514692-.5858171 9.6814093-1.6528186-.078081-.1247826-.1498651-.2571214-.2092654-.4017391zm19.168036-4.0202249c0-3.604003-1.2945278-6.0982908-2.4032984-8.0395052-1.477871-2.4024588-2.8635982-4.4349776-2.8635982-6.8373314 0-2.6793103 2.0317841-5.1738081 4.8954873-5.1738081.1292953 0 .2517691.0156372.3773913.0236132-5.1866117-4.75223386-12.0967766-7.65371812-19.6861619-7.65371812-10.1850525 0-19.1446327 5.22586212-24.3573764 13.13911542.6844678.0217242 1.3293704.0353673 1.876147.0353673 3.0486207 0 7.769895-.3705697 7.769895-.3705697 1.5705398-.092039 1.7562969 2.2167017.1862819 2.4023538 0 0-1.5797751.1849176-3.336072.2769566l10.6153374 31.5770315 6.3805997-19.1329836-4.5416042-12.4440479c-1.5706447-.092039-3.0576462-.2769566-3.0576462-.2769566-1.5714843-.0927736-1.3873014-2.4943928.1849175-2.4023538 0 0 4.8132084.3705697 7.6776462.3705697 3.0485157 0 7.7705247-.3705697 7.7705247-.3705697 1.5714843-.092039 1.7562969 2.2167017.1855473 2.4023538 0 0-1.5812444.1849176-3.336177.2769566l10.5352624 31.3364917 3.0073763-9.5294453c1.3361919-4.1645277 2.1195203-7.1150224 2.1195203-9.6095202zm-48.83218894 1.4702099c0 11.5384558 6.70509744 21.5108846 16.43047974 26.2357271l-13.90628184-38.0995202c-1.61745127 3.6252024-2.5241979 7.6373463-2.5241979 11.8637931z"/></g></svg>